<svg width="259" height="136" viewBox="0 0 259 136" fill="none" xmlns="http://www.w3.org/2000/svg">
  <path d="M24.5013 47.3632V58.0037C23.2147 59.1252 21.4945 60.0645 19.3409 60.8215C17.2152 61.5785 14.6141 61.9571 11.5374 61.9571C8.48874 61.9571 5.85961 61.2701 3.65002 59.8963C1.21667 58.4102 0 56.2933 0 53.5456V10.8154C0 8.23588 6.30712 6.94613 18.9214 6.94613H43.5485C44.3596 8.43215 44.9609 10.1004 45.3525 11.9509C45.7441 13.7734 45.9399 15.4137 45.9399 16.8716C45.9399 23.2924 43.1289 26.5028 37.5071 26.5028H22.9909C21.9281 26.5028 21.3967 26.9514 21.3967 27.8486V28.143C21.3967 28.3112 21.4246 28.4234 21.4806 28.4795H40.0243C41.4508 30.9188 42.164 33.6665 42.164 36.7227C42.164 40.5359 41.3109 43.5079 39.6048 45.6388H19.0472C18.8235 45.8631 18.7116 46.1155 18.7116 46.3959C18.7116 46.8445 19.0472 47.1108 19.7185 47.195C20.4177 47.2791 21.2009 47.3211 22.0679 47.3211C22.935 47.3211 23.7461 47.3351 24.5013 47.3632Z" fill="#FD5050"/>
  <path d="M84.0343 6.1891C87.3906 6.1891 90.2995 7.10034 92.7608 8.92282C95.2221 10.7453 96.4527 13.3388 96.4527 16.7034V40.0873C96.4527 47.209 94.2851 52.7045 89.9498 56.5737C85.6146 60.415 79.6151 62.3356 71.9515 62.3356C64.3158 62.3356 58.3723 60.443 54.1209 56.6578C49.7857 52.8727 47.618 47.3492 47.618 40.0873V10.1004C50.9184 7.46483 54.7363 6.14704 59.0715 6.14704C62.7076 6.14704 65.5884 7.11436 67.7141 9.04899C69.8398 10.9556 70.9026 13.8575 70.9026 17.7549V42.2743C71.2103 42.4986 71.5599 42.6107 71.9515 42.6107C72.371 42.6107 72.6647 42.5126 72.8325 42.3163C73.0283 42.092 73.1262 41.6854 73.1262 41.0966V17.7128C73.1262 15.9464 73.0423 14.5445 72.8745 13.5071C72.7067 12.4697 72.371 11.4322 71.8676 10.3948C75.2239 7.591 79.2795 6.1891 84.0343 6.1891Z" fill="#FD5050"/>
  <path d="M99.5574 53.4194V11.278C99.5574 9.82004 100.718 8.6144 103.04 7.6611C105.389 6.67976 108.144 6.1891 111.305 6.1891C113.095 6.1891 114.773 6.4134 116.339 6.86201C117.933 7.28258 119.15 7.82933 119.989 8.50225C121.136 9.96023 122.185 11.4463 123.136 12.9603C124.087 14.4744 126.226 18.0072 129.555 23.5588C129.862 23.5588 130.142 23.4606 130.394 23.2644C130.645 23.0681 130.771 22.7737 130.771 22.3812C130.771 21.9606 130.422 21.1615 129.722 19.9839L125.191 12.1612V9.84808C126.618 8.67048 128.352 7.75923 130.394 7.11436C132.435 6.46948 134.547 6.14704 136.729 6.14704C140.281 6.14704 143.148 6.79192 145.329 8.08167C147.875 9.62377 149.147 12.0351 149.147 15.3155V55.1438C149.147 57.5551 148.001 59.3075 145.707 60.4009C143.749 61.3823 141.134 61.8729 137.862 61.8729C136.044 61.8729 134.267 61.6767 132.533 61.2841C130.827 60.8916 129.485 60.3869 128.506 59.7701C126.52 57.2186 124.548 54.3587 122.59 51.1904L118.311 44.0407C117.5 44.1528 117.094 44.5874 117.094 45.3444C117.094 45.8211 117.5 46.7323 118.311 48.0782L123.555 56.5737V58.8028C120.311 60.9056 116.647 61.9571 112.563 61.9571C108.508 61.9571 105.319 61.2141 102.998 59.728C100.704 58.242 99.5574 56.1391 99.5574 53.4194Z" fill="#FD5050"/>
  <path d="M176.753 14.937V16.8296C175.634 19.1568 174.781 20.9792 174.194 22.297C173.607 23.5868 173.313 24.47 173.313 24.9466C173.313 25.7598 173.774 26.1663 174.697 26.1663L182.962 7.99756C184.892 6.73584 187.521 6.10498 190.85 6.10498C194.206 6.10498 197.087 7.03024 199.492 8.88076C202.121 10.9556 203.436 13.7874 203.436 17.3763C203.436 20.3764 202.415 23.3345 200.373 26.2504C198.332 29.1384 195.66 31.6478 192.36 33.7787C190.822 32.9095 189.437 32.4749 188.207 32.4749C186.976 32.4749 186.361 33.0777 186.361 34.2834C187.647 34.5357 188.808 34.9002 189.843 35.3769C190.906 35.8255 192.15 36.7087 193.577 38.0265L204.737 48.3305C203.925 57.4149 199.394 61.9571 191.143 61.9571C188.095 61.9571 185.48 61.172 183.298 59.6019C180.725 57.7794 178.711 55.0036 177.257 51.2745L173.355 41.5172H173.145C172.222 41.5172 171.761 41.9098 171.761 42.6948C171.761 43.1995 172.152 44.4192 172.935 46.3538C173.718 48.4567 174.893 51.2605 176.459 54.7653V58.0037C173.523 60.6393 169.257 61.9571 163.663 61.9571C160.643 61.9571 158.056 61.2701 155.902 59.8963C153.469 58.4102 152.252 56.2933 152.252 53.5456V10.1425C155.133 7.50689 159.51 6.1891 165.384 6.1891C168.432 6.1891 171.019 6.83397 173.145 8.12373C175.55 9.66583 176.753 11.9369 176.753 14.937Z" fill="#FD5050"/>
  <path d="M222.903 48.4146C223.686 48.4146 224.077 47.98 224.077 47.1108C217.896 42.9892 213.169 37.9283 209.897 31.9282C206.652 25.928 204.834 19.311 204.443 12.0771C205.702 10.1986 207.575 8.75459 210.065 7.74521C212.582 6.73584 215.169 6.23115 217.826 6.23115C221.322 6.23115 224.329 6.91809 226.846 8.29196C228.413 12.5257 229.699 16.5632 230.706 20.4045C229.336 26.4607 228.65 29.4888 228.65 29.4888C228.539 29.9094 228.483 30.3019 228.483 30.6664C228.483 31.6197 228.986 32.0964 229.993 32.0964C230.329 31.0309 231.112 27.8065 232.342 22.4232C232.65 21.0493 233.056 19.1427 233.559 16.7034C234.091 14.2361 234.762 11.3341 235.573 7.99756C238.146 6.76388 241.083 6.14704 244.383 6.14704C248.383 6.14704 251.571 7.12837 253.949 9.09105C256.326 11.0257 257.515 13.8295 257.515 17.5025C257.515 22.8858 256.005 28.129 252.984 33.2319C250.607 37.2694 247.46 41.0406 243.544 44.5453V58.4243C241.223 59.8542 239.139 60.7935 237.293 61.2421C235.447 61.7187 233.503 61.9571 231.461 61.9571C227.602 61.9571 224.567 61.2281 222.357 59.7701C220.148 58.3121 219.043 56.1391 219.043 53.2512V45.8491C219.546 46.3538 220.19 46.9146 220.973 47.5314C221.756 48.1202 222.399 48.4146 222.903 48.4146Z" fill="#FD5050"/>
  <path d="M23.4944 105.513C23.6062 105.597 23.9279 105.639 24.4593 105.639C24.9907 105.639 25.3963 105.429 25.676 105.008C25.9557 104.588 26.0955 103.901 26.0955 102.947V99.7511C26.0955 98.7417 25.9697 98.0267 25.7179 97.6062C25.4942 97.1575 25.1026 96.9332 24.5432 96.9332C24.0118 96.9332 23.6482 96.9893 23.4524 97.1015C23.4804 97.2417 23.4944 97.48 23.4944 97.8164V105.513ZM24.5432 124.523V130.958C23.3126 131.995 21.5785 132.85 19.3409 133.523C17.1033 134.168 14.7679 134.49 12.3345 134.49C8.86632 134.49 6.02742 133.817 3.81783 132.472C1.30058 130.93 0.0419542 128.701 0.0419542 125.785V85.8301C0.0419542 84.9329 0.643298 84.0357 1.84599 83.1384C3.07664 82.2412 4.7688 81.4281 6.92245 80.6991C11.5374 79.129 16.8097 78.3439 22.7392 78.3439C30.9342 78.3439 37.4651 80.3907 42.3318 84.4843C47.1985 88.5779 49.6318 94.0874 49.6318 101.013C49.6318 107.91 47.4362 113.28 43.045 117.121C38.8216 120.766 32.962 122.588 25.4662 122.588C23.7601 122.588 21.9281 122.392 19.9702 121.999C18.0403 121.579 16.7397 121.214 16.0685 120.906C15.8447 121.13 15.7328 121.439 15.7328 121.831C15.7328 123.261 18.6696 124.158 24.5432 124.523Z" fill="#FD5050"/>
  <path d="M75.9791 87.0918V130.537C74.6925 131.659 72.9724 132.598 70.8187 133.355C68.6651 134.112 66.0499 134.49 62.9733 134.49C59.8966 134.49 57.2815 133.803 55.1278 132.43C52.6945 130.944 51.4778 128.841 51.4778 126.121V82.6758C52.7644 81.5543 54.4845 80.615 56.6382 79.858C58.7918 79.1009 61.393 78.7224 64.4417 78.7224C67.4904 78.7224 70.1335 79.3953 72.371 80.7412C74.7764 82.2833 75.9791 84.4002 75.9791 87.0918Z" fill="#FD5050"/>
  <path d="M78.4544 89.2367C78.4544 86.9376 78.818 84.9609 79.5452 83.3067C80.3004 81.6244 81.1814 80.3486 82.1883 79.4795H120.576C121.583 80.5449 122.492 82.1291 123.303 84.2319C124.115 86.3348 124.52 88.9283 124.52 92.0125C124.52 93.7229 124.422 94.9565 124.226 95.7136C124.059 96.4426 123.877 97.0594 123.681 97.5641C123.485 98.0688 123.289 98.6015 123.094 99.1623C120.129 103.368 116.395 107.602 111.892 111.864C107.836 112.004 104.816 112.354 102.83 112.915C100.872 113.448 99.893 114.107 99.893 114.892C99.893 115.228 100.033 115.551 100.313 115.859C101.683 115.27 103.557 114.78 105.934 114.387C108.34 113.966 110.661 113.756 112.899 113.756H122.339C124.212 117.093 125.149 120.247 125.149 123.219C125.149 126.191 124.492 128.462 123.178 130.032C121.863 131.602 120.227 132.64 118.269 133.145C116.842 133.537 115.066 133.733 112.941 133.733H82.1883C79.2795 130.705 77.8251 125.967 77.8251 119.518C77.8251 118.088 77.9649 116.756 78.2446 115.523C80.7339 112.551 83.6427 109.284 86.9711 105.723C90.2995 102.162 93.432 98.98 96.3688 96.1762C96.257 95.5594 95.8794 95.2509 95.2361 95.2509C94.8445 95.2509 94.3131 95.5173 93.6418 96.05C92.9706 96.5828 91.9357 97.6062 90.5372 99.1202H81.517C79.4753 95.8958 78.4544 92.6013 78.4544 89.2367Z" fill="#FD5050"/>
  <path d="M127.457 89.2367C127.457 86.9376 127.821 84.9609 128.548 83.3067C129.303 81.6244 130.184 80.3486 131.191 79.4795H169.579C170.586 80.5449 171.495 82.1291 172.306 84.2319C173.117 86.3348 173.523 88.9283 173.523 92.0125C173.523 93.7229 173.425 94.9565 173.229 95.7136C173.061 96.4426 172.879 97.0594 172.684 97.5641C172.488 98.0688 172.292 98.6015 172.096 99.1623C169.131 103.368 165.398 107.602 160.894 111.864C156.839 112.004 153.818 112.354 151.832 112.915C149.874 113.448 148.896 114.107 148.896 114.892C148.896 115.228 149.035 115.551 149.315 115.859C150.686 115.27 152.56 114.78 154.937 114.387C157.342 113.966 159.664 113.756 161.901 113.756H171.341C173.215 117.093 174.152 120.247 174.152 123.219C174.152 126.191 173.495 128.462 172.18 130.032C170.866 131.602 169.229 132.64 167.271 133.145C165.845 133.537 164.069 133.733 161.943 133.733H131.191C128.282 130.705 126.828 125.967 126.828 119.518C126.828 118.088 126.967 116.756 127.247 115.523C129.736 112.551 132.645 109.284 135.974 105.723C139.302 102.162 142.435 98.98 145.371 96.1762C145.259 95.5594 144.882 95.2509 144.239 95.2509C143.847 95.2509 143.316 95.5173 142.644 96.05C141.973 96.5828 140.938 97.6062 139.54 99.1202H130.52C128.478 95.8958 127.457 92.6013 127.457 89.2367Z" fill="#FD5050"/>
  <path d="M202.471 106.102C202.695 106.326 203.044 106.438 203.52 106.438C203.995 106.438 204.401 106.34 204.737 106.144C204.009 101.882 203.52 99.3585 203.268 98.5735C202.961 97.7604 202.499 97.3538 201.884 97.3538C201.604 97.3538 201.268 97.4379 200.877 97.6062L202.471 106.102ZM194.164 118.719C193.884 119.111 193.745 119.476 193.745 119.812C193.745 120.626 194.5 121.312 196.01 121.873C197.548 122.406 199.408 122.742 201.59 122.883C201.954 126.92 202.345 129.219 202.765 129.78C202.233 130.817 200.765 131.869 198.36 132.934C195.954 133.972 193.241 134.49 190.22 134.49C186.221 134.49 182.795 133.635 179.942 131.925C177.089 130.187 175.662 127.957 175.662 125.238C175.662 124.509 175.732 123.864 175.872 123.303L184.808 83.2646C187.046 81.8347 189.717 80.7131 192.822 79.9C195.926 79.0869 199.157 78.6804 202.513 78.6804C207.324 78.6804 211.435 79.4935 214.848 81.1197C218.735 82.9702 221.099 85.6479 221.938 89.1526L231.503 128.813C228.595 132.598 223.854 134.49 217.281 134.49C214.092 134.49 211.393 133.916 209.184 132.766C206.974 131.616 205.688 129.976 205.324 127.845L204.401 122.714C206.079 122.686 207.701 122.364 209.268 121.747C210.834 121.13 211.617 120.485 211.617 119.812C211.617 119.364 211.435 118.999 211.072 118.719C210.009 119.476 208.708 120.051 207.17 120.443C205.632 120.836 204.205 121.032 202.891 121.032C199.115 121.032 196.206 120.261 194.164 118.719Z" fill="#FD5050"/>
  <ellipse cx="246.166" cy="125.448" rx="9.33334" ry="9.37931" fill="#FD5050"/>
  <path d="M233.333 82.7095C237.281 80.7934 241.666 79.6824 246.141 79.7253C253.444 79.7954 257.111 87.5364 256.031 94.7601L253.502 111.677C253.232 113.485 251.599 114.768 249.778 114.603L239.312 113.656L233.333 82.7095Z" fill="#FD5050"/>
</svg>
