<svg width="469" height="66" viewBox="0 0 469 66" fill="none" xmlns="http://www.w3.org/2000/svg">
<path d="M27.8574 32.2363C27.9876 32.334 28.362 32.3828 28.9805 32.3828C29.599 32.3828 30.071 32.1387 30.3965 31.6504C30.722 31.1621 30.8848 30.3646 30.8848 29.2578V25.5469C30.8848 24.375 30.7383 23.5449 30.4453 23.0566C30.1849 22.5358 29.7292 22.2754 29.0781 22.2754C28.4596 22.2754 28.0365 22.3405 27.8086 22.4707C27.8411 22.6335 27.8574 22.9102 27.8574 23.3008V32.2363ZM29.0781 54.3066V61.7773C27.6458 62.9818 25.6276 63.9746 23.0234 64.7559C20.4193 65.5046 17.7012 65.8789 14.8691 65.8789C10.8327 65.8789 7.52865 65.0977 4.95703 63.5352C2.02734 61.7448 0.5625 59.1569 0.5625 55.7715V9.38477C0.5625 8.3431 1.26237 7.30143 2.66211 6.25977C4.0944 5.2181 6.0638 4.27409 8.57031 3.42773C13.9414 1.60482 20.0775 0.693359 26.9785 0.693359C36.5163 0.693359 44.1172 3.06966 49.7812 7.82227C55.4453 12.5749 58.2773 18.9714 58.2773 27.0117C58.2773 35.0195 55.722 41.2533 50.6113 45.7129C45.696 49.9447 38.8763 52.0605 30.1523 52.0605C28.1667 52.0605 26.0345 51.8327 23.7559 51.377C21.5098 50.8887 19.9961 50.4655 19.2148 50.1074C18.9544 50.3678 18.8242 50.7259 18.8242 51.1816C18.8242 52.8418 22.2422 53.8835 29.0781 54.3066ZM88.9414 10.8496V61.2891C87.444 62.5911 85.4421 63.6816 82.9355 64.5605C80.429 65.4395 77.3854 65.8789 73.8047 65.8789C70.224 65.8789 67.1803 65.0814 64.6738 63.4863C61.8418 61.7611 60.4258 59.3197 60.4258 56.1621V5.72266C61.9232 4.42057 63.9251 3.33008 66.4316 2.45117C68.9382 1.57227 71.9655 1.13281 75.5137 1.13281C79.0618 1.13281 82.138 1.91406 84.7422 3.47656C87.5417 5.26693 88.9414 7.72461 88.9414 10.8496ZM91.8223 13.3398C91.8223 10.6706 92.2454 8.37565 93.0918 6.45508C93.9707 4.50195 94.9961 3.02083 96.168 2.01172H140.846C142.018 3.2487 143.076 5.08789 144.02 7.5293C144.964 9.9707 145.436 12.9818 145.436 16.5625C145.436 18.5482 145.322 19.9805 145.094 20.8594C144.898 21.7057 144.687 22.4219 144.459 23.0078C144.231 23.5938 144.003 24.2122 143.775 24.8633C140.325 29.7461 135.979 34.6615 130.738 39.6094C126.018 39.7721 122.503 40.179 120.191 40.8301C117.913 41.4486 116.773 42.2135 116.773 43.125C116.773 43.5156 116.936 43.89 117.262 44.248C118.857 43.5645 121.038 42.9948 123.805 42.5391C126.604 42.0508 129.306 41.8066 131.91 41.8066H142.896C145.077 45.6803 146.168 49.3424 146.168 52.793C146.168 56.2435 145.403 58.8802 143.873 60.7031C142.343 62.526 140.439 63.7305 138.16 64.3164C136.5 64.7721 134.433 65 131.959 65H96.168C92.7826 61.4844 91.0898 55.9831 91.0898 48.4961C91.0898 46.8359 91.2526 45.2897 91.5781 43.8574C94.4753 40.4069 97.8607 36.6146 101.734 32.4805C105.608 28.3464 109.254 24.6517 112.672 21.3965C112.542 20.6803 112.102 20.3223 111.354 20.3223C110.898 20.3223 110.279 20.6315 109.498 21.25C108.717 21.8685 107.512 23.0566 105.885 24.8145H95.3867C93.0104 21.071 91.8223 17.2461 91.8223 13.3398ZM148.854 13.3398C148.854 10.6706 149.277 8.37565 150.123 6.45508C151.002 4.50195 152.027 3.02083 153.199 2.01172H197.877C199.049 3.2487 200.107 5.08789 201.051 7.5293C201.995 9.9707 202.467 12.9818 202.467 16.5625C202.467 18.5482 202.353 19.9805 202.125 20.8594C201.93 21.7057 201.718 22.4219 201.49 23.0078C201.262 23.5938 201.035 24.2122 200.807 24.8633C197.356 29.7461 193.01 34.6615 187.77 39.6094C183.049 39.7721 179.534 40.179 177.223 40.8301C174.944 41.4486 173.805 42.2135 173.805 43.125C173.805 43.5156 173.967 43.89 174.293 44.248C175.888 43.5645 178.069 42.9948 180.836 42.5391C183.635 42.0508 186.337 41.8066 188.941 41.8066H199.928C202.109 45.6803 203.199 49.3424 203.199 52.793C203.199 56.2435 202.434 58.8802 200.904 60.7031C199.374 62.526 197.47 63.7305 195.191 64.3164C193.531 64.7721 191.464 65 188.99 65H153.199C149.814 61.4844 148.121 55.9831 148.121 48.4961C148.121 46.8359 148.284 45.2897 148.609 43.8574C151.507 40.4069 154.892 36.6146 158.766 32.4805C162.639 28.3464 166.285 24.6517 169.703 21.3965C169.573 20.6803 169.133 20.3223 168.385 20.3223C167.929 20.3223 167.311 20.6315 166.529 21.25C165.748 21.8685 164.544 23.0566 162.916 24.8145H152.418C150.042 21.071 148.854 17.2461 148.854 13.3398ZM236.158 32.9199C236.419 33.1803 236.826 33.3105 237.379 33.3105C237.932 33.3105 238.404 33.1966 238.795 32.9688C237.949 28.0208 237.379 25.0911 237.086 24.1797C236.728 23.2357 236.191 22.7637 235.475 22.7637C235.149 22.7637 234.758 22.8613 234.303 23.0566L236.158 32.9199ZM226.49 47.5684C226.165 48.0241 226.002 48.4473 226.002 48.8379C226.002 49.7819 226.881 50.5794 228.639 51.2305C230.429 51.849 232.594 52.2396 235.133 52.4023C235.556 57.0898 236.012 59.7591 236.5 60.4102C235.882 61.6146 234.173 62.8353 231.373 64.0723C228.574 65.2767 225.416 65.8789 221.9 65.8789C217.245 65.8789 213.258 64.8861 209.938 62.9004C206.617 60.8822 204.957 58.2943 204.957 55.1367C204.957 54.2904 205.038 53.5417 205.201 52.8906L215.602 6.40625C218.206 4.74609 221.314 3.44401 224.928 2.5C228.541 1.55599 232.301 1.08398 236.207 1.08398C241.806 1.08398 246.591 2.02799 250.562 3.91602C255.087 6.06445 257.838 9.17318 258.814 13.2422L269.947 59.2871C266.562 63.6816 261.044 65.8789 253.395 65.8789C249.684 65.8789 246.542 65.2116 243.971 63.877C241.399 62.5423 239.902 60.638 239.479 58.1641L238.404 52.207C240.357 52.1745 242.245 51.8001 244.068 51.084C245.891 50.3678 246.803 49.6191 246.803 48.8379C246.803 48.3171 246.591 47.8939 246.168 47.5684C244.931 48.4473 243.417 49.1146 241.627 49.5703C239.837 50.026 238.176 50.2539 236.646 50.2539C232.252 50.2539 228.867 49.3587 226.49 47.5684ZM326.441 65.8789C321.982 65.8789 318.482 65.1465 315.943 63.6816C313.209 62.1517 311.728 59.987 311.5 57.1875L311.061 52.5977C314.055 51.8815 316.578 50.026 318.629 47.0312C319.182 46.1849 319.459 45.4525 319.459 44.834C319.459 43.9876 319.036 43.5645 318.189 43.5645H318.043C318.01 43.597 317.945 43.6133 317.848 43.6133C315.569 48.3984 311.874 50.791 306.764 50.791C304.16 50.791 301.93 50.2214 300.074 49.082C298.251 47.9427 296.575 45.9733 295.045 43.1738H294.752C293.873 43.1738 293.434 43.5482 293.434 44.2969C293.434 44.8177 293.629 45.4036 294.02 46.0547C295.322 48.2357 296.949 49.9447 298.902 51.1816C300.432 52.2233 302.044 52.8418 303.736 53.0371L303.346 62.2656C301.393 63.5352 299.326 64.4466 297.145 65C294.996 65.5859 291.92 65.8789 287.916 65.8789C283.945 65.8789 280.396 65.0977 277.271 63.5352C273.43 61.6146 271.51 58.9453 271.51 55.5273C271.51 51.263 272.356 40.7324 274.049 23.9355C274.96 15.179 275.693 9.05924 276.246 5.57617C279.599 2.58138 284.547 1.08398 291.09 1.08398C295.842 1.08398 299.781 1.96289 302.906 3.7207L305.592 12.7051L303.883 19.8828C303.753 20.3711 303.688 20.8431 303.688 21.2988C303.688 22.4382 304.339 23.0241 305.641 23.0566L310.279 3.76953C311.614 3.05339 313.355 2.4349 315.504 1.91406C317.652 1.36068 319.996 1.08398 322.535 1.08398C327.288 1.08398 330.803 1.89779 333.082 3.52539C335.393 5.12044 336.76 7.82227 337.184 11.6309C337.281 12.347 337.428 13.5352 337.623 15.1953C340.585 40.651 342.066 55.6413 342.066 60.166C338.453 63.9746 333.245 65.8789 326.441 65.8789ZM375.318 32.9199C375.579 33.1803 375.986 33.3105 376.539 33.3105C377.092 33.3105 377.564 33.1966 377.955 32.9688C377.109 28.0208 376.539 25.0911 376.246 24.1797C375.888 23.2357 375.351 22.7637 374.635 22.7637C374.309 22.7637 373.919 22.8613 373.463 23.0566L375.318 32.9199ZM365.65 47.5684C365.325 48.0241 365.162 48.4473 365.162 48.8379C365.162 49.7819 366.041 50.5794 367.799 51.2305C369.589 51.849 371.754 52.2396 374.293 52.4023C374.716 57.0898 375.172 59.7591 375.66 60.4102C375.042 61.6146 373.333 62.8353 370.533 64.0723C367.734 65.2767 364.576 65.8789 361.061 65.8789C356.406 65.8789 352.418 64.8861 349.098 62.9004C345.777 60.8822 344.117 58.2943 344.117 55.1367C344.117 54.2904 344.199 53.5417 344.361 52.8906L354.762 6.40625C357.366 4.74609 360.475 3.44401 364.088 2.5C367.701 1.55599 371.461 1.08398 375.367 1.08398C380.966 1.08398 385.751 2.02799 389.723 3.91602C394.247 6.06445 396.998 9.17318 397.975 13.2422L409.107 59.2871C405.722 63.6816 400.204 65.8789 392.555 65.8789C388.844 65.8789 385.702 65.2116 383.131 63.877C380.559 62.5423 379.062 60.638 378.639 58.1641L377.564 52.207C379.518 52.1745 381.406 51.8001 383.229 51.084C385.051 50.3678 385.963 49.6191 385.963 48.8379C385.963 48.3171 385.751 47.8939 385.328 47.5684C384.091 48.4473 382.577 49.1146 380.787 49.5703C378.997 50.026 377.337 50.2539 375.807 50.2539C371.412 50.2539 368.027 49.3587 365.65 47.5684ZM437.916 32.2363C438.046 32.334 438.421 32.3828 439.039 32.3828C439.658 32.3828 440.13 32.1387 440.455 31.6504C440.781 31.1621 440.943 30.3646 440.943 29.2578V25.5469C440.943 24.375 440.797 23.5449 440.504 23.0566C440.243 22.5358 439.788 22.2754 439.137 22.2754C438.518 22.2754 438.095 22.3405 437.867 22.4707C437.9 22.6335 437.916 22.9102 437.916 23.3008V32.2363ZM439.137 54.3066V61.7773C437.704 62.9818 435.686 63.9746 433.082 64.7559C430.478 65.5046 427.76 65.8789 424.928 65.8789C420.891 65.8789 417.587 65.0977 415.016 63.5352C412.086 61.7448 410.621 59.1569 410.621 55.7715V9.38477C410.621 8.3431 411.321 7.30143 412.721 6.25977C414.153 5.2181 416.122 4.27409 418.629 3.42773C424 1.60482 430.136 0.693359 437.037 0.693359C446.575 0.693359 454.176 3.06966 459.84 7.82227C465.504 12.5749 468.336 18.9714 468.336 27.0117C468.336 35.0195 465.781 41.2533 460.67 45.7129C455.755 49.9447 448.935 52.0605 440.211 52.0605C438.225 52.0605 436.093 51.8327 433.814 51.377C431.568 50.8887 430.055 50.4655 429.273 50.1074C429.013 50.3678 428.883 50.7259 428.883 51.1816C428.883 52.8418 432.301 53.8835 439.137 54.3066Z" fill="#FD5050"/>
</svg>
